<?xml version="1.0" standalone="no"?><!DOCTYPE svg PUBLIC "-//W3C//DTD SVG 1.1//EN" "http://www.w3.org/Graphics/SVG/1.1/DTD/svg11.dtd"><svg t="1497669341427" class="icon" style="" viewBox="0 0 1024 1024" version="1.1" xmlns="http://www.w3.org/2000/svg" p-id="2881" xmlns:xlink="http://www.w3.org/1999/xlink" width="128" height="128"><defs><style type="text/css"></style></defs><path d="M782.219636 365.591273 266.356364 365.591273l0-97.419636c0-122.624 104.401455-218.693818 237.940364-219.461818 130.513455 0.698182 228.770909 94.72 228.770909 219.461818l0 48.779636c0 13.451636 10.961455 24.389818 24.576 24.389818 13.591273 0 24.576-10.868364 24.576-24.389818l0-48.779636c0-151.947636-118.574545-266.705455-276.293818-268.171636l-3.165091 0C342.434909 1.466182 217.227636 118.737455 217.227636 268.171636l0 99.979636C134.097455 380.183273 69.818182 450.653091 69.818182 536.343273l0 316.951273C69.818182 947.502545 146.944 1024 241.780364 1024l540.416 0C877.125818 1024 954.181818 947.502545 954.181818 853.294545L954.181818 536.343273C954.181818 442.205091 877.009455 365.591273 782.219636 365.591273L782.219636 365.591273zM905.053091 853.248c0 67.258182-55.063273 121.925818-122.833455 121.925818L241.780364 975.173818c-67.770182 0-122.763636-54.667636-122.763636-121.925818L119.016727 536.273455c0-67.258182 55.063273-121.856 122.763636-121.856l540.416 0c67.84 0 122.833455 54.667636 122.833455 121.856L905.029818 853.248 905.053091 853.248zM511.976727 511.906909c-81.245091 0-147.409455 65.605818-147.409455 146.315636 0 72.448 53.527273 132.375273 123.345455 143.825455-0.069818 0.907636-0.512 1.536-0.512 2.420364l0 73.146182c0 13.521455 10.961455 24.459636 24.552727 24.459636 13.614545 0 24.576-10.938182 24.576-24.459636l0-73.146182c0-0.907636-0.442182-1.536-0.512-2.420364 69.841455-11.450182 123.368727-71.354182 123.368727-143.825455C659.386182 577.489455 593.268364 511.906909 511.976727 511.906909L511.976727 511.906909zM511.976727 755.758545c-54.155636 0-98.280727-43.845818-98.280727-97.489455 0-53.829818 44.171636-97.466182 98.280727-97.466182 54.109091 0 98.141091 43.776 98.141091 97.466182C610.234182 711.982545 566.132364 755.758545 511.976727 755.758545L511.976727 755.758545z" p-id="2882" fill="#00A0E7"></path></svg>